<svg width="1253" height="1253" viewBox="0 0 1253 1253" fill="none" xmlns="http://www.w3.org/2000/svg">
<path fill-rule="evenodd" clip-rule="evenodd" d="M499.237 883.064H0L243.437 371.845L499.237 883.064Z" fill="#8C271D"/>
<path fill-rule="evenodd" clip-rule="evenodd" d="M381.419 883.159H127.804L251.471 623.459L381.419 883.159Z" fill="#FE5F01"/>
<path fill-rule="evenodd" clip-rule="evenodd" d="M602.547 370L934.763 378.153L608.663 614.575L602.547 370Z" fill="#FE5F01"/>
<path fill-rule="evenodd" clip-rule="evenodd" d="M938.84 881.568L606.624 643.109L608.663 883.607L938.84 881.568Z" fill="#FE5F01"/>
<path fill-rule="evenodd" clip-rule="evenodd" d="M919.253 499.169L733.714 633.432L916.443 742.831L919.253 499.169Z" fill="#8C271D"/>
<path d="M1045.01 882.43C1037.01 882.43 1029.8 881.137 1023.36 878.553C1016.93 875.969 1011.56 872.191 1007.27 867.219L1025.85 845.279C1028.58 848.594 1031.26 851.105 1033.89 852.811C1036.53 854.517 1039.26 855.371 1042.08 855.371C1049.49 855.371 1053.2 851.129 1053.2 842.647V803.741H1018.39V777.706H1087.28V840.599C1087.28 854.64 1083.67 865.121 1076.45 872.044C1069.24 878.968 1058.76 882.43 1045.01 882.43Z" fill="#FE5F01"/>
<path d="M1154.86 880.088V777.706H1204.15C1213.7 777.706 1221.97 779.266 1228.94 782.387C1235.91 785.506 1241.3 789.967 1245.1 795.769C1248.9 801.571 1250.81 808.42 1250.81 816.318C1250.81 824.217 1248.9 831.018 1245.1 836.722C1241.3 842.426 1235.91 846.79 1228.94 849.812C1221.97 852.835 1213.7 854.346 1204.15 854.346H1174.02L1189.38 840.16V880.088H1154.86ZM1216.14 880.088L1190.99 842.792H1227.55L1253 880.088H1216.14ZM1189.38 843.962L1174.02 828.313H1201.95C1206.73 828.313 1210.27 827.24 1212.56 825.095C1214.85 822.949 1216 820.024 1216 816.318C1216 812.613 1214.85 809.688 1212.56 807.543C1210.27 805.398 1206.73 804.325 1201.95 804.325H1174.02L1189.38 788.675V843.962Z" fill="#FE5F01"/>
</svg>
