<svg width="1810" height="284" viewBox="0 0 1810 284" fill="none" xmlns="http://www.w3.org/2000/svg">
<path fill-rule="evenodd" clip-rule="evenodd" d="M270.615 277.369H0L131.957 0.258636L270.615 277.369Z" fill="#8C271D"/>
<path fill-rule="evenodd" clip-rule="evenodd" d="M206.751 277.42H69.2773L136.312 136.648L206.751 277.42Z" fill="#FE5F01"/>
<path d="M407.111 173.696C454.117 173.696 492.223 134.812 492.223 86.8478C492.223 38.8831 454.117 0 407.111 0C360.106 0 322 38.8831 322 86.8478C322 134.812 360.106 173.696 407.111 173.696Z" fill="#8C271D"/>
<path fill-rule="evenodd" clip-rule="evenodd" d="M333.641 141.923L495.844 280.306L333.641 281.44V141.923Z" fill="#FE5F01"/>
<path d="M653.082 256.645C711.669 256.645 759.163 207.724 759.163 147.377C759.163 87.0296 711.669 38.1083 653.082 38.1083C594.494 38.1083 547 87.0296 547 147.377C547 207.724 594.494 256.645 653.082 256.645Z" stroke="#FE5F01" stroke-width="32.0001" stroke-miterlimit="22.9256"/>
<path fill-rule="evenodd" clip-rule="evenodd" d="M660.66 280.432L794.885 277.185L659.577 166.774L660.66 280.432Z" fill="#8C271D"/>
<path fill-rule="evenodd" clip-rule="evenodd" d="M831 2.55939L1011.08 6.9788L834.315 135.133L831 2.55939Z" fill="#FE5F01"/>
<path fill-rule="evenodd" clip-rule="evenodd" d="M1013.29 279.859L833.21 150.6L834.315 280.964L1013.29 279.859Z" fill="#FE5F01"/>
<path fill-rule="evenodd" clip-rule="evenodd" d="M1002.67 72.5767L902.1 145.355L1001.15 204.656L1002.67 72.5767Z" fill="#8C271D"/>
<path d="M1326.37 4.49103H1257.87V282.896H1326.37V4.49103Z" fill="#8C271D"/>
<path fill-rule="evenodd" clip-rule="evenodd" d="M1094.37 10.0141L1325.27 284L1089.95 280.686L1094.37 10.0141Z" fill="#FE5F01"/>
<path d="M1497.17 250.081C1556.96 250.081 1605.43 200.151 1605.43 138.559C1605.43 76.9674 1556.96 27.0375 1497.17 27.0375C1437.37 27.0375 1388.9 76.9674 1388.9 138.559C1388.9 200.151 1437.37 250.081 1497.17 250.081Z" stroke="#FE5F01" stroke-width="32.0001" stroke-miterlimit="22.9256"/>
<path fill-rule="evenodd" clip-rule="evenodd" d="M1502.69 192.755L1503.79 125.363L1639.68 126.468L1638.58 280.032H1575.61L1574.5 191.65L1502.69 192.755Z" fill="#8C271D"/>
<path d="M1696.46 272.87C1692.12 272.87 1688.21 272.17 1684.72 270.769C1681.23 269.368 1678.33 267.321 1676 264.625L1686.07 252.733C1687.55 254.53 1689 255.891 1690.43 256.815C1691.86 257.74 1693.34 258.203 1694.87 258.203C1698.89 258.203 1700.9 255.904 1700.9 251.306V230.217H1682.03V216.104H1719.37V250.196C1719.37 257.807 1717.41 263.489 1713.5 267.241C1709.59 270.994 1703.91 272.87 1696.46 272.87Z" fill="#FE5F01"/>
<path d="M1756 271.602V216.104H1782.72C1787.9 216.104 1792.38 216.95 1796.16 218.642C1799.94 220.332 1802.86 222.751 1804.92 225.896C1806.98 229.041 1808.01 232.754 1808.01 237.035C1808.01 241.316 1806.98 245.003 1804.92 248.095C1802.86 251.187 1799.94 253.552 1796.16 255.19C1792.38 256.829 1787.9 257.648 1782.72 257.648H1766.39L1774.71 249.958V271.602H1756ZM1789.22 271.602L1775.58 251.385H1795.4L1809.2 271.602H1789.22ZM1774.71 252.019L1766.39 243.536H1781.53C1784.12 243.536 1786.03 242.955 1787.28 241.792C1788.52 240.629 1789.14 239.043 1789.14 237.035C1789.14 235.026 1788.52 233.441 1787.28 232.278C1786.03 231.115 1784.12 230.534 1781.53 230.534H1766.39L1774.71 222.051V252.019Z" fill="#FE5F01"/>
</svg>
