<svg width="57" height="56" viewBox="0 0 57 56" fill="none" xmlns="http://www.w3.org/2000/svg">
<rect width="56.144" height="56" rx="8" fill="#FE5F01"/>
<path fill-rule="evenodd" clip-rule="evenodd" d="M28.9516 38.3261C27.6301 37.2661 20.3332 30.1406 19.6993 28.8631C21.047 27.1226 27.715 20.1612 29.476 19.6545C32.0721 22.7721 35.5976 25.7432 38.4619 28.7769C37.934 29.9267 30.437 37.6482 28.9516 38.3261ZM28.9516 16.6288C26.8247 15.3851 24.0423 11.1443 21.5528 9.59908C13.3576 4.51317 4.35634 14.1498 9.51761 21.596C10.958 23.6738 16.086 27.3379 16.6248 29.244C14.4904 32.1852 2.83102 39.1511 10.7882 47.3708C13.3045 49.97 18.0263 51.1308 21.5828 48.555C24.4303 46.4927 26.393 43.1595 28.9516 41.4098C31.1679 42.4397 34.0822 46.6901 36.5044 48.3698C44.1915 53.7012 53.4935 44.1826 48.6745 36.5687C46.9374 33.8242 42.9506 31.4825 41.4253 28.8631C42.9773 26.3797 46.7845 24.0627 48.5103 21.3684C53.4112 13.7173 44.2332 4.44227 36.5301 9.38896C34.1291 10.9307 31.0537 15.6691 28.9516 16.6288Z" fill="#8C271D"/>
</svg>
