<svg width="57" height="56" viewBox="0 0 57 56" fill="none" xmlns="http://www.w3.org/2000/svg">
<rect width="56.144" height="56" rx="8" fill="#FE5F01"/>
<path fill-rule="evenodd" clip-rule="evenodd" d="M15.8592 15.1786C15.567 16.7769 19.317 20.1198 20.6769 21.4812C21.9222 22.7284 25.6331 26.0793 25.7226 27.2406C24.177 27.4821 20.8399 25.1046 15.9392 25.7506C11.9542 26.2756 3.31826 29.4906 11.2184 31.9655C17.9495 34.0737 23.0792 29.7118 25.503 29.4668C25.5723 30.97 24.1269 31.7046 23.1881 32.5609C21.3981 34.1933 15.3163 39.6082 15.169 41.1723C17.962 41.4588 24.8896 31.5114 27.2492 31.3112C27.4811 32.8547 26.3431 34.0072 25.9489 35.6598C25.5271 37.4289 25.484 39.3328 25.7335 41.2185C26.0783 43.827 27.3273 48.4129 29.6795 49C31.931 47.6481 32.7503 43.6758 32.3408 40.1323C31.8902 36.2314 29.8096 33.9858 29.4504 31.3449C31.3343 31.862 34.1992 35.4594 35.5357 36.9332C36.6096 38.1175 39.8365 41.7906 41.1439 41.8054C41.5161 39.1206 31.7515 32.8185 31.2341 29.7242C33.4813 29.5599 35.7411 32.107 41.2098 31.3354C43.6044 30.9974 48.2869 29.5146 49 27.4442C47.8952 25.0033 43.481 24.234 39.9995 24.6944C37.0548 25.0839 32.5263 27.4865 31.2668 27.4301C31.6699 25.8589 37.9664 20.5312 39.5454 18.9745C40.7066 17.8297 41.5873 17.6055 41.8253 15.7591C38.2533 16.1116 33.3412 24.9911 29.5429 25.7141C29.7414 23.9367 30.6755 23.0957 31.1057 21.0334C32.2849 15.3811 29.225 7.95885 27.4301 8.00017C24.9028 9.0356 24.2326 13.582 24.5979 16.9577C25.0642 21.2707 27.2506 23.5045 27.4873 25.7354C26.028 25.3718 26.5013 25.5059 25.5118 24.4822C25.0241 23.9776 24.76 23.6772 24.263 23.1414C22.6188 21.3683 17.7077 15.5473 15.8592 15.1786Z" fill="white"/>
</svg>
