<svg width="57" height="56" viewBox="0 0 57 56" fill="none" xmlns="http://www.w3.org/2000/svg">
<rect width="56.144" height="56" rx="8" fill="#8C271D"/>
<path fill-rule="evenodd" clip-rule="evenodd" d="M26.6634 20.9334C26.1214 21.8755 22.4912 25.6903 21.2343 26.2718C19.0257 25.1488 16.7427 21.3153 14.3313 20.1288C12.5373 20.5703 7.69027 25.9453 7 27.4353C7.69596 29.2257 9.36209 30.2418 10.6734 31.4595C11.8271 32.5307 13.2278 34.4105 14.7149 34.9206C17.1678 33.3698 18.699 30.9383 20.8507 29.3771C22.2298 29.8704 25.5543 33.2669 26.3072 34.7025C24.9568 37.0699 20.8903 39.5435 20.1678 41.9694C20.6987 43.3567 26.0731 48.2614 27.3701 49C28.958 48.5122 34.0811 42.9834 34.4256 42.4679C35.8898 40.275 32.4693 38.8887 29.3133 35.085C29.9554 33.8494 33.384 30.6078 34.6566 29.6577C37.0865 30.969 39.7902 35.064 41.9431 35.8208C43.4541 35.1397 48.4547 29.7632 49 28.5829C48.5154 26.9986 46.5992 25.6707 45.5358 24.6169C44.6359 23.725 42.8004 21.5753 41.5595 21.0522C39.3924 21.6824 36.9611 25.3394 35.0402 26.6207C34.1426 26.1327 30.5688 22.347 29.7189 21.3157C31.0674 18.2159 35.4424 16.7576 35.7885 13.6663C34.7802 12.1304 32.4883 10.5027 30.8573 8.66549C27.8725 5.30349 27.2337 7.71919 25.1169 9.89333C24.197 10.8382 23.5878 11.495 22.6369 12.3999C18.6065 16.2348 24.6306 16.8513 26.6634 20.9334Z" fill="white"/>
</svg>
