<svg width="57" height="56" viewBox="0 0 57 56" fill="none" xmlns="http://www.w3.org/2000/svg">
<rect width="56.144" height="56" rx="8" fill="#8C271D"/>
<path fill-rule="evenodd" clip-rule="evenodd" d="M16.9237 17.3672C21.3252 18.3712 22.9386 19.4552 28.3982 19.1374C31.8793 18.9347 36.129 17.9528 38.4578 16.56C38.3333 19.8058 36.506 22.6083 36.7353 27.7751C36.9475 32.5507 38.2135 34.5722 39.0665 38.4664C34.6096 37.4179 33.02 36.3716 27.6437 36.6667C23.1642 36.913 20.9247 38.3913 17.4004 39.0924C18.3034 36.3177 19.2756 33.0305 19.2704 29.661C19.2603 22.898 17.815 22.2233 16.9237 17.3672ZM7.40365 7.08396C6.94548 8.67734 6.84654 45.8244 7.2672 48.6461C10.3166 49.1097 46.6304 49.1405 48.7095 48.6033C49.0975 45.1282 49.1299 8.84644 48.6037 7L7.40365 7.08396Z" fill="white"/>
</svg>
